<svg xmlns="http://www.w3.org/2000/svg" width="375" viewBox="0 0 375 375" height="375" version="1.0"><defs><clipPath id="a"><path d="M 23.183594 2 L 351.683594 2 L 351.683594 373 L 23.183594 373 Z M 23.183594 2"/></clipPath></defs><g clip-path="url(#a)"><path fill="#DB0A5B" d="M 139.972656 60.46875 L 140.695312 66.753906 L 235.285156 69.367188 L 235.382812 67.816406 L 235.382812 67.84375 L 235.542969 65.101562 L 235.695312 62.34375 L 235.765625 60.972656 L 202.25 41.613281 C 193.082031 36.320312 181.789062 36.320312 172.613281 41.613281 Z M 146.578125 101.824219 L 231.785156 104.601562 L 231.957031 103.304688 L 231.957031 103.339844 L 232.101562 102.277344 L 232.371094 100.210938 L 232.566406 98.609375 L 232.78125 96.988281 L 233.058594 94.773438 L 233.324219 92.539062 L 234.046875 85.597656 L 234.660156 78.289062 L 142.664062 80.835938 L 146.570312 101.796875 Z M 156.792969 136.558594 L 225.765625 139.144531 L 227.488281 130.78125 L 228.332031 126.097656 L 228.484375 125.296875 L 228.632812 124.46875 L 229.210938 121.113281 L 229.570312 118.800781 L 229.933594 116.742188 L 230.453125 113.488281 L 150.078125 116.105469 L 152.621094 124.78125 L 156.785156 136.613281 Z M 200.0625 178.652344 L 200.179688 178.628906 C 201.902344 178.25 203.53125 177.542969 205.054688 176.652344 C 206.292969 175.921875 207.441406 175.070312 208.523438 174.136719 C 209.804688 173.027344 210.980469 171.820312 212.050781 170.507812 L 212.863281 169.464844 L 213.339844 168.804688 L 214.09375 167.777344 C 214.894531 166.625 215.636719 165.4375 216.320312 164.210938 L 216.527344 163.867188 L 216.742188 163.519531 L 219.21875 158.84375 L 220.570312 155.738281 L 221.171875 154.277344 L 222.121094 151.761719 L 223.382812 147.902344 L 163.019531 150.160156 L 165.941406 155.222656 C 167.832031 158.265625 169.917969 161.199219 172.285156 163.898438 C 175.542969 167.625 179.371094 170.957031 183.875 173.085938 C 185.148438 173.691406 186.464844 174.183594 187.820312 174.570312 L 189.109375 174.894531 L 190.339844 175.160156 L 191.128906 175.34375 L 193.464844 175.992188 C 194.992188 176.453125 196.488281 177.023438 197.953125 177.660156 L 200.070312 178.640625 Z M 144.632812 257.773438 L 223.671875 254.957031 L 221.097656 246.203125 L 216.414062 232.871094 L 149.695312 229.980469 L 149.347656 231.425781 L 147.613281 240.085938 L 146.710938 245.234375 L 146.480469 246.507812 L 146.046875 249.054688 L 145.511719 252.503906 L 145.191406 254.378906 L 144.644531 257.777344 Z M 140.414062 292.933594 L 231.304688 290.144531 L 227.5625 270.773438 L 227.238281 269.316406 L 143.367188 266.324219 L 142.292969 274.582031 L 140.40625 292.921875 Z M 119.304688 302.015625 L 119.824219 296.117188 L 119.980469 294.628906 L 120.128906 293.257812 L 120.753906 287.917969 L 122.507812 275.320312 L 123.277344 270.589844 L 123.402344 269.847656 L 125.851562 257.988281 L 126.242188 256.414062 L 127.5625 251.4375 L 128.09375 249.527344 L 128.382812 248.5 L 130.765625 241.410156 L 130.9375 240.949219 L 133.691406 234.121094 L 133.785156 233.914062 L 137.507812 226.253906 L 139.902344 221.78125 L 140.101562 221.433594 L 144.476562 214.59375 L 146.191406 212.164062 L 146.90625 211.191406 C 149.046875 208.414062 151.300781 205.753906 153.777344 203.265625 C 153.894531 203.148438 154.007812 203.046875 154.136719 202.9375 L 154.460938 202.648438 L 156.0625 201.257812 L 158.375 199.347656 L 159.058594 198.863281 L 159.941406 198.25 L 163.007812 196.339844 L 165.042969 195.242188 L 167.589844 194.117188 C 168.78125 193.65625 169.996094 193.25 171.230469 192.960938 C 172.089844 192.746094 172.960938 192.59375 173.839844 192.5 C 174.390625 192.441406 174.941406 192.410156 175.496094 192.441406 L 175.53125 192.441406 L 175.65625 192.578125 L 175.523438 192.695312 C 175.4375 192.695312 175.351562 192.703125 175.257812 192.707031 C 175.222656 192.707031 175.128906 192.710938 175.164062 192.710938 L 174.796875 192.757812 C 173.058594 193.003906 171.398438 193.628906 169.867188 194.4375 C 168.539062 195.144531 167.300781 196.011719 166.148438 196.984375 L 164.777344 198.210938 C 163.914062 199.042969 163.109375 199.929688 162.359375 200.871094 L 161.5625 201.914062 L 161.308594 202.257812 L 160.34375 203.605469 L 158.351562 206.871094 L 157.9375 207.566406 L 156.097656 211.007812 L 154.1875 215.382812 L 153.785156 216.394531 L 152.847656 218.90625 L 152.015625 221.414062 L 209.953125 218.898438 C 208.492188 216.167969 206.890625 213.527344 205.148438 210.972656 C 203.480469 208.554688 201.664062 206.226562 199.652344 204.085938 C 196.875 201.160156 193.695312 198.535156 190.003906 196.855469 C 188.949219 196.371094 187.863281 195.96875 186.742188 195.65625 L 184.5625 195.15625 L 183.765625 194.96875 L 181.007812 194.207031 C 179.335938 193.6875 177.699219 193.074219 176.097656 192.367188 C 174.511719 191.671875 172.972656 190.882812 171.46875 190.015625 L 168.113281 187.898438 C 161.191406 183.15625 155.484375 176.824219 150.753906 169.941406 L 148.730469 166.875 L 145.988281 162.28125 L 142.679688 156.015625 L 139 147.929688 L 134.722656 136.707031 L 130.136719 121.878906 L 125.421875 102.207031 L 121.113281 77.15625 L 120.394531 71.808594 L 68.773438 101.621094 C 59.605469 106.917969 53.957031 116.707031 53.957031 127.292969 L 53.957031 247.21875 C 53.957031 257.808594 59.601562 267.597656 68.773438 272.890625 Z M 254.183594 302.816406 L 306.0625 272.84375 C 315.230469 267.550781 320.878906 257.761719 320.878906 247.167969 L 320.878906 127.246094 C 320.878906 116.660156 315.234375 106.871094 306.0625 101.578125 L 255.472656 72.359375 L 255.226562 75.25 L 251.6875 101.566406 L 251.367188 103.253906 L 249.816406 110.792969 L 249.226562 113.394531 L 248.851562 114.878906 L 248.273438 116.867188 L 246.683594 122.597656 L 246.597656 122.886719 L 244.003906 130.433594 L 243.660156 131.304688 L 243.003906 132.933594 L 241.109375 137.464844 L 240.691406 138.34375 L 240.34375 139.078125 L 238.957031 141.972656 L 236.179688 147.277344 L 234.808594 149.726562 L 234.695312 149.9375 L 230.222656 156.765625 L 228.5 159.15625 L 227.792969 160.09375 C 225.644531 162.847656 223.335938 165.460938 220.867188 167.933594 C 220.75 168.046875 220.625 168.152344 220.5 168.261719 L 219.519531 169.128906 L 216.394531 171.675781 L 216.09375 171.90625 C 214.058594 173.355469 211.949219 174.707031 209.734375 175.863281 L 207.996094 176.675781 L 205.222656 177.796875 C 204.132812 178.183594 203.023438 178.507812 201.890625 178.753906 L 200.492188 178.996094 L 201.730469 179.660156 L 204.429688 181.28125 C 211.324219 185.753906 216.992188 191.898438 221.6875 198.589844 L 223.953125 201.980469 L 226.730469 206.582031 L 230.085938 212.945312 L 233.84375 221.121094 L 238.257812 232.53125 L 243.289062 248.578125 L 248.4375 269.773438 L 253.179688 296.460938 L 254.085938 302.917969 Z M 139.066406 313.433594 L 172.609375 332.8125 C 181.777344 338.109375 193.070312 338.109375 202.242188 332.8125 L 234.6875 314.078125 L 233.53125 304.457031 L 139.839844 301.589844 L 139.128906 313.4375 Z M 252.304688 34.964844 L 336.859375 83.796875 C 346.027344 89.089844 351.675781 98.878906 351.675781 109.46875 L 351.675781 264.964844 C 351.675781 275.554688 346.027344 285.34375 336.859375 290.636719 L 202.25 368.378906 C 193.082031 373.671875 181.789062 373.671875 172.613281 368.378906 L 38.003906 290.628906 C 28.832031 285.335938 23.183594 275.558594 23.183594 264.960938 L 23.183594 109.460938 C 23.183594 98.875 28.832031 89.085938 38 83.789062 L 172.613281 6.035156 C 181.78125 0.742188 193.078125 0.742188 202.25 6.035156 L 250.472656 33.859375 L 251.019531 33.988281 L 252.375 34.960938 Z M 252.304688 34.964844" fill-rule="evenodd"/></g></svg>